<?xml version="1.0" encoding="UTF-8"?>
<svg id="_レイヤー_1" xmlns="http://www.w3.org/2000/svg" version="1.1" viewBox="0 0 512 512">
  <!-- Generator: Adobe Illustrator 29.6.1, SVG Export Plug-In . SVG Version: 2.1.1 Build 9)  -->
  <defs>
    <style>
      .st0 {
        fill: #dd5661;
      }
    </style>
  </defs>
  <path class="st0" d="M412.1,155.6h0c0,.1-50.6-50.5-50.6-50.5-2-2-4.6-3.1-7.5-3.1s-5.4,1.1-7.3,3.1c-1.6,1.6-2.6,3.6-3,6-2.2,15.6-15.8,27.4-31.6,27.4s-3.1-.1-4.6-.3c-8.5-1.2-15.9-5.6-21-12.5-5.1-6.8-7.3-15.2-6-23.7,2-13.9,13.1-25.1,27.1-27.1,2.8-.4,5.2-1.8,6.9-4,1.7-2.2,2.4-5,2-7.7-.3-2.3-1.3-4.4-3-6.1L259.4,3c-2-2-4.6-3-7.4-3s-5.4,1.1-7.4,3l-44.6,44.6c-7.2-21.4-27.4-36-50.2-36s-9.2.6-13.6,1.8c-28.2,7.5-45,36.6-37.5,64.8,4.5,17.1,17.5,30.8,34.3,36.5l-44.5,44.5c-4.1,4.1-4.1,10.7,0,14.8l44.6,44.6c-26.2,8.9-41.4,36.8-34.2,63.9,4.1,15.2,15,27.9,29.3,34.4l-19.2,55.4c-5.5,12.5-4.9,27.1,1.5,39l29.8,70.3c.1.4.3.8.7,1.2,1.9,3.5,2.8,7.3,2.8,11.4v8.2c0,5.8,4.7,10.5,10.5,10.5s10.5-4.7,10.5-10.5v-8.2c0-7.3-1.8-14.4-5.3-21.1l-29.8-70.3c-.1-.4-.3-.8-.6-1.2-3.6-6.7-3.9-14.6-.6-21.5h0c0,0,20.3-58.5,20.3-58.5.4,0,.9,0,1.3,0,22.8,0,42.9-14.6,50.1-35.9l11.5,11.4v86.3c0,5.8,4.7,10.5,10.5,10.5s10.5-4.7,10.5-10.5v-118.9c0-13,10.5-23.5,23.5-23.5s23.5,10.5,23.5,23.5v102.8c0,12.1,2.9,24.2,8.3,35l3.1,6.3c7.9,16.1,7.9,35.3,0,51.4l-8.5,17c-1.9,3.7-2.9,7.9-2.9,12.3v12.9c0,5.8,4.7,10.5,10.5,10.5s10.5-4.7,10.5-10.5v-12.9c0-1,.2-2.1.6-2.9l8.5-17c10.9-22,10.9-48.2,0-70.1l-3.1-6.3c-2.1-4.2-3.7-8.6-4.7-13.3,10.9,9,24.9,14.1,39.1,14.1s27.5-12.3,27.5-27.5v-46.9c27.4-7.7,44-35.9,37.1-63.7-4.4-17.6-17.4-31.7-34.5-37.4l44.5-44.6c4.1-4.1,4.1-10.7,0-14.8l-3.4-3.4ZM300.4,332.4v-43.3l3.6-3.6c6.4,19,23.4,33,43.4,35.6v45.3c0,3.2-2.3,5.8-5.3,6.4h-1.2c-22.3,0-40.5-18.2-40.5-40.5ZM354.1,300.7c-15.8,0-29.4-11.8-31.6-27.5-.4-3-.4-6,0-9,.9-5.6-3-11-8.8-11.9-.5,0-1-.1-1.6-.1-2.8,0-5.5,1.1-7.5,3.1l-4.5,4.5c-2.3-22.3-21.2-39.8-44.1-39.8h-.2c-24.5.1-44.4,20.1-44.3,44.5v2.8l-12.2-12.2c-2-2-4.6-3.1-7.5-3.1s-5.4,1.1-7.3,3.1c-2.4,2.4-3.5,5.8-3,9,1.2,8.5-1,16.9-6.1,23.7-5.1,6.8-12.6,11.3-21.1,12.5-1.5.2-3,.3-4.6.3-15.8,0-29.4-11.8-31.6-27.5-2.5-17.4,9.7-33.7,27.2-36.2,1.5-.2,3-.3,4.5-.3s3,.1,4.5.3c.6,0,1.1.1,1.7.1,5.1,0,9.4-3.7,10.3-8.9.5-3.3-.6-6.6-3-9l-52.6-52.6,52.6-52.6c2-2,3.1-4.7,3.1-7.5,0-2.8-1.1-5.4-3.1-7.3-2-2-4.7-3.1-7.5-3.1s-1.1,0-1.5.1c-1.5.2-2.9.3-4.4.3-15.9,0-29.5-11.9-31.7-27.6-1.4-9.8,2-19.9,9-26.9,6.1-5.9,14.2-9.1,22.7-9.1s16.5,3.2,22.5,9.1c7,7,10.4,17.2,9,27-.9,5.6,3,11,8.8,11.9.5,0,1,.1,1.6.1,2.8,0,5.5-1.1,7.5-3.1l52.7-52.6,34.7,34.8c-11.5,6.3-20.2,16.4-24.6,28.9-4.7,13.3-3.9,27.7,2.2,40.4,8.7,18.3,27.5,30.1,47.8,30.1s15.6-1.8,22.8-5.2c10.1-4.8,18.4-12.7,23.7-22.4l34.8,34.7-56,56.1h1.3c-.5,1.3-.8,2.7-.8,4.1,0,2.8,1.1,5.4,3.1,7.3,2,2,4.7,3.1,7.5,3.1h0c.5,0,1.1,0,1.5-.1,1.5-.2,3-.3,4.6-.3,15.8,0,29.4,11.8,31.6,27.5,2.5,17.4-9.7,33.7-27.2,36.2-1.5.2-3,.3-4.6.3Z"/>
  <path class="st0" d="M502.2,160.6h-50.9c-5.8,0-10.5,4.7-10.5,10.5s4.7,10.5,10.5,10.5h50.9c5.8,0,10.5-4.7,10.5-10.5s-4.7-10.5-10.5-10.5Z"/>
  <path class="st0" d="M440.2,83.7v.3h2c1.8,0,3.6-.5,5.2-1.4l44.2-25.5c5-3,6.6-9.3,3.8-14.3-1.9-3.3-5.4-5.3-9.1-5.3s-3.6.5-5.1,1.4l-44.1,25.5c-3.3,1.8-5.3,5.2-5.3,9.1s3.7,9.4,8.5,10.3Z"/>
  <path class="st0" d="M491.3,285l-44.1-25.5c-1.6-.9-3.3-1.4-5.1-1.4-3.8,0-7.3,2-9.1,5.3-1.4,2.4-1.7,5.2-1,7.9.7,2.7,2.5,4.9,4.9,6.3l44.1,25.5c1.6.9,3.4,1.4,5.2,1.4h4.8l-.9-.9c2.1-.9,3.9-2.4,5-4.4,1.4-2.4,1.8-5.2,1.1-7.9-.7-2.7-2.4-5-4.9-6.4Z"/>
  <path class="st0" d="M71.2,171.1c0-5.8-4.7-10.5-10.5-10.5H9.8c-5.8,0-10.5,4.7-10.5,10.5s4.7,10.5,10.5,10.5h50.9c5.8,0,10.5-4.7,10.5-10.5Z"/>
  <path class="st0" d="M20.5,57l44.1,25.5c1.6.9,3.4,1.4,5.2,1.4,3.8,0,7.2-2,9-5.2,1.4-2.4,1.8-5.2,1-7.9-.7-2.7-2.4-5-4.9-6.4l-44.1-25.5c-1.6-.9-3.4-1.4-5.2-1.4-3.7,0-7.2,2-9.1,5.2-2.9,5-1.2,11.4,3.8,14.3Z"/>
  <path class="st0" d="M70,258.2c-1.8,0-3.7.5-5.3,1.4l-44.1,25.5c-3.3,1.8-5.3,5.2-5.3,9.1,0,5.8,4.7,10.5,10.5,10.5s3.6-.5,5.2-1.4l44.1-25.5c2.4-1.4,4.2-3.6,4.9-6.3.7-2.7.4-5.6-1-8-1.8-3.2-5.3-5.2-9-5.2Z"/>
</svg>