<?xml version="1.0" encoding="UTF-8"?>
<svg id="Icons" xmlns="http://www.w3.org/2000/svg" version="1.1" viewBox="0 0 512 512">
  <!-- Generator: Adobe Illustrator 29.6.1, SVG Export Plug-In . SVG Version: 2.1.1 Build 9)  -->
  <defs>
    <style>
      .st0 {
        fill: #dd5661;
      }
    </style>
  </defs>
  <path id="Right" class="st0" d="M256,0C114.8,0,0,114.8,0,256s114.8,256,256,256,256-114.8,256-256S397.2,0,256,0ZM256,480c-123.5,0-224-100.5-224-224S132.5,32,256,32s224,100.5,224,224-100.5,224-224,224ZM363.3,244.7c6.3,6.3,6.3,16.4,0,22.6l-80,80c-3.1,3.1-7.2,4.7-11.3,4.7s-8.2-1.6-11.3-4.7c-6.3-6.3-6.3-16.4,0-22.6l52.7-52.7h-153.4c-8.8,0-16-7.2-16-16s7.2-16,16-16h153.4l-52.7-52.7c-6.3-6.3-6.3-16.4,0-22.6,6.3-6.2,16.4-6.3,22.6,0l80,80Z"/>
</svg>